<svg width="598" height="142" viewBox="0 0 598 142" fill="none" xmlns="http://www.w3.org/2000/svg">
<path d="M198.83 6.7998H210.49V103C210.504 104.407 210.234 105.803 209.697 107.104C209.159 108.404 208.364 109.583 207.36 110.57C206.402 111.593 205.241 112.407 203.952 112.957C202.663 113.508 201.273 113.785 199.87 113.77H189.24V107.65C182.781 111.548 175.385 113.622 167.84 113.65C162.229 113.732 156.661 112.664 151.479 110.51C146.297 108.357 141.611 105.164 137.71 101.13C133.737 97.1712 130.585 92.466 128.436 87.2848C126.288 82.1037 125.184 76.5488 125.19 70.9398C125.193 65.3425 126.298 59.8005 128.444 54.6306C130.589 49.4606 133.731 44.7639 137.692 40.8088C141.653 36.8537 146.354 33.7176 151.527 31.5799C156.7 29.4422 162.243 28.3445 167.84 28.3498C175.363 28.3631 182.747 30.3714 189.24 34.1698V16.3998C189.24 13.8555 190.25 11.4152 192.049 9.61511C193.847 7.81505 196.286 6.80246 198.83 6.7998ZM189.24 71.5798V70.2698C189.17 66.5886 188.113 62.9938 186.18 59.8598C184.285 56.7514 181.632 54.1744 178.47 52.3698C175.211 50.542 171.534 49.5879 167.796 49.6002C164.059 49.6124 160.388 50.5906 157.14 52.4398C153.91 54.3147 151.225 56.9998 149.35 60.2298C146.972 64.3007 146.01 69.0456 146.616 73.7215C147.222 78.3973 149.362 82.7401 152.7 86.0698C156.659 90.0829 162.05 92.3595 167.687 92.3988C173.324 92.4382 178.746 90.2372 182.76 86.2798C184.755 84.3771 186.355 82.0989 187.467 79.5763C188.579 77.0536 189.182 74.3361 189.24 71.5798Z" fill="#FCF0E3"/>
<path d="M232 40.8696C240.01 32.8661 250.866 28.3637 262.189 28.3487C273.512 28.3337 284.379 32.8073 292.41 40.7896C296.462 44.6826 299.67 49.3669 301.836 54.5517C304.002 59.7365 305.079 65.3111 305 70.9296C305.086 76.5516 304.02 82.1316 301.866 87.3256C299.713 92.5196 296.519 97.2175 292.48 101.13C288.515 105.098 283.806 108.246 278.623 110.394C273.441 112.542 267.885 113.648 262.275 113.648C256.665 113.648 251.11 112.542 245.927 110.394C240.744 108.246 236.036 105.098 232.07 101.13C228.03 97.2189 224.834 92.5213 222.681 87.327C220.527 82.1326 219.462 76.5519 219.55 70.9296C219.445 65.332 220.496 59.7728 222.638 54.6003C224.781 49.4278 227.968 44.7533 232 40.8696ZM247.13 86.1396C249.106 88.1287 251.456 89.7061 254.045 90.7804C256.635 91.8546 259.411 92.4044 262.215 92.3979C265.018 92.3914 267.792 91.8287 270.377 90.7424C272.961 89.6561 275.304 88.0678 277.27 86.0696C279.285 84.1016 280.878 81.7448 281.954 79.1422C283.031 76.5396 283.567 73.7456 283.53 70.9296C283.409 65.3538 281.11 60.0471 277.124 56.1464C273.138 52.2457 267.782 50.0614 262.205 50.0614C256.628 50.0614 251.273 52.2457 247.287 56.1464C243.301 60.0471 241.001 65.3538 240.88 70.9296C240.85 73.7578 241.392 76.5628 242.473 79.1765C243.554 81.7902 245.152 84.1586 247.17 86.1396H247.13Z" fill="#FCF0E3"/>
<path d="M399.15 62.2702C400.514 68.6965 400.339 75.3543 398.64 81.7002C397.094 87.7537 394.237 93.3934 390.27 98.2202C386.301 102.95 381.363 106.773 375.79 109.43C369.536 112.473 362.621 113.907 355.673 113.602C348.724 113.296 341.962 111.261 336 107.68V124.42C336.016 125.828 335.747 127.224 335.209 128.525C334.671 129.826 333.875 131.005 332.87 131.99C331.89 133.028 330.704 133.849 329.389 134.402C328.073 134.954 326.656 135.226 325.23 135.2H314.72V28.2002H336V34.2002C341.119 31.0719 346.864 29.1112 352.828 28.4579C358.791 27.8045 364.825 28.4745 370.5 30.4202C377.706 32.6979 384.168 36.87 389.21 42.5002C394.296 48.0385 397.738 54.8846 399.15 62.2702ZM342.23 86.1402C345.234 89.121 349.054 91.1458 353.207 91.9596C357.36 92.7734 361.662 92.3398 365.569 90.7134C369.476 89.0869 372.815 86.3404 375.164 82.82C377.513 79.2995 378.768 75.1625 378.77 70.9302C378.77 65.2546 376.515 59.8114 372.502 55.7981C368.489 51.7848 363.045 49.5302 357.37 49.5302C351.694 49.5302 346.251 51.7848 342.238 55.7981C338.224 59.8114 335.97 65.2546 335.97 70.9302C335.936 73.7562 336.473 76.56 337.549 79.1736C338.624 81.7871 340.216 84.1566 342.23 86.1402Z" fill="#FCF0E3"/>
<path d="M550.25 82.2101H571.36C571.407 87.8498 569.95 93.4002 567.14 98.2901C564.38 103.137 560.353 107.14 555.49 109.87C550.62 112.659 545.101 114.115 539.49 114.09C535.874 114.104 532.281 113.512 528.86 112.34C522.626 110.147 517.23 106.068 513.42 100.669C509.611 95.2694 507.576 88.8181 507.6 82.2101V7.21009H518.08C519.975 7.20081 521.838 7.70536 523.47 8.67009C525.095 9.62209 526.448 10.9753 527.4 12.6001C528.362 14.2361 528.863 16.1022 528.85 18.0001V28.9301H571.36V50.0001H528.85V84.3901C529.388 87.0146 530.881 89.346 533.04 90.9322C535.199 92.5183 537.87 93.2462 540.535 92.9747C543.201 92.7031 545.67 91.4516 547.465 89.4627C549.26 87.4737 550.252 84.8892 550.25 82.2101Z" fill="#FCF0E3"/>
<path d="M90.6903 28.2002V34.2002C84.1977 30.4004 76.813 28.3921 69.2903 28.3802C63.6882 28.2919 58.1271 29.3469 52.9466 31.4807C47.7661 33.6144 43.0751 36.7821 39.1603 40.7902C35.1177 44.6867 31.9201 49.3732 29.7662 54.5583C27.6123 59.7434 26.5483 65.3163 26.6403 70.9302C26.5519 76.5525 27.6174 82.1332 29.7708 87.3276C31.9242 92.5219 35.1198 97.2195 39.1603 101.13C43.0599 105.166 47.7456 108.359 52.9279 110.512C58.1102 112.666 63.679 113.734 69.2903 113.65C77.1669 113.647 84.8839 111.43 91.5603 107.25C92.444 109.096 93.7998 110.676 95.4903 111.83C97.1963 113.03 99.2347 113.666 101.32 113.65H112V28.2002H90.6903ZM76.9303 58.2702C77.4503 54.6602 80.3303 52.2702 83.3603 53.0302C86.3903 53.7902 88.4203 57.2302 87.9003 60.8302C87.3803 64.4302 84.5003 66.8302 81.4703 66.0702C78.4403 65.3102 76.4103 61.8702 76.9303 58.2702ZM64.6203 46.1002C67.3403 44.2602 71.0603 45.4802 72.9303 48.8202C74.8003 52.1602 74.1203 56.3802 71.4003 58.2202C68.6803 60.0602 64.9703 58.8502 63.1003 55.5002C61.2303 52.1502 61.9103 48.0002 64.6203 46.1002ZM50.7103 52.1002C53.4303 50.2602 57.1503 51.4702 59.0203 54.8202C60.8903 58.1702 60.2103 62.3802 57.4903 64.2202C54.7703 66.0602 51.0603 64.8502 49.1903 61.5002C47.3203 58.1502 48.0003 54.0002 50.7103 52.1402V52.1002ZM54.4403 77.7702C52.8903 80.4702 49.2103 80.9702 46.2203 78.8902C43.2303 76.8102 42.0703 72.8902 43.6203 70.2402C45.1703 67.5902 48.8503 67.0402 51.8403 69.1202C54.8303 71.2002 56.0003 75.1102 54.4403 77.8102V77.7702ZM87.8203 84.7702C84.0603 87.6502 78.5403 84.3302 73.9803 86.2702C69.3603 88.0402 67.6803 94.2702 62.9803 94.8002C58.2803 95.3302 54.6803 90.2202 58.9803 80.9202C61.7803 74.6602 61.0003 69.3002 66.1703 67.0602C71.4403 65.0602 74.6103 69.4902 81.1003 72.0602C90.6303 75.7602 91.5803 81.9402 87.8203 84.8102V84.7702Z" fill="#FCF0E3"/>
<path d="M471.5 82.85C469.329 86.5658 466.044 89.5045 462.11 91.25C458.188 93.0528 453.803 93.5943 449.56 92.8C445.417 92.0804 441.571 90.1732 438.49 87.31L494.56 62.2L493.9 59.3C493.826 58.7611 493.695 58.2316 493.51 57.72C493.172 56.5001 492.744 55.3068 492.23 54.15C490.504 50.2119 488.139 46.5864 485.23 43.42C479.37 36.5161 471.375 31.7623 462.51 29.91C453.58 27.8689 444.225 28.8356 435.9 32.66C430.343 35.123 425.378 38.7484 421.34 43.292C417.301 47.8356 414.284 53.1919 412.49 59C410.75 64.7249 410.219 70.749 410.93 76.69C411.775 83.7468 414.404 90.4719 418.57 96.23C422.394 101.679 427.447 106.151 433.321 109.285C439.194 112.418 445.723 114.124 452.378 114.265C459.034 114.406 465.629 112.979 471.63 110.097C477.631 107.216 482.869 102.962 486.92 97.68C490.284 93.2528 492.759 88.217 494.21 82.85H471.5ZM436.38 58C438.488 55.2957 441.238 53.161 444.38 51.79C447.511 50.3599 450.945 49.7212 454.38 49.93C457.757 50.14 461.044 51.1036 464 52.75L432.12 67C432.856 63.7213 434.311 60.6471 436.38 58Z" fill="#FCF0E3"/>
</svg>
