<svg width="248" height="313" viewBox="0 0 248 313" fill="none" xmlns="http://www.w3.org/2000/svg">
<path d="M91.4242 302.265C67.1606 300.449 46.7759 282.922 40.2008 258.548C32.0036 228.221 33.4407 195.003 44.9202 165.828C60.3204 126.654 93.4822 95.5201 132.501 83.5932C165.014 73.6565 205.295 79.4558 224.504 108.512C237.033 127.467 238.108 151.932 238.198 174.941C238.296 196.937 237.849 219.283 231.777 240.382C225.704 261.481 213.227 281.431 194.492 291.633C177.637 300.816 157.797 301.238 138.776 301.458C122.12 301.65 106.364 303.382 91.4242 302.265Z" fill="#36D6AD"/>
<path d="M64.5343 121.975C73.0419 108.574 81.7832 101.574 95.0242 93.2713C100.483 89.8462 107.072 85.5237 106.769 78.9144C106.507 73.2023 100.891 69.2883 95.502 68.0628C83.3877 65.315 70.4955 71.694 62.7763 81.739C55.057 91.784 51.8549 104.884 51.1921 117.701C51.0038 121.238 51.4293 125.564 54.5268 127.079C58.1754 128.863 62.0228 125.229 64.5343 121.961" fill="#36D6AD"/>
<path d="M229.297 261.55C229.68 260.85 230.015 260.124 230.298 259.378C232 254.972 233.695 253.746 235.401 248.705C235.625 247.912 235.966 247.158 236.412 246.467C238.083 244.127 241.781 244.166 244.17 245.768C248.781 248.858 249.109 256.117 245.792 260.572C242.252 265.321 235.813 267.168 229.952 266.927C229.658 266.917 229.374 266.816 229.139 266.638C228.904 266.459 228.73 266.213 228.641 265.932C228.128 264.224 228.585 262.838 229.297 261.55Z" fill="#36D6AD"/>
<path d="M241.829 160.926C240.322 170.96 234.671 180.443 226.133 185.988C223.586 187.635 220.572 189.273 219.795 192.209C219.296 194.07 219.847 196.05 220.353 197.893C228.389 227.678 226.785 259.246 215.773 288.061C215.037 289.96 212.176 295.676 212.176 295.676C212.176 295.676 168.017 304.754 154.622 304.897L155.215 300.553L155.878 295.665C156.893 288.138 158.096 279.496 159.425 270.216C167.274 215.253 179.259 137.781 180.03 135.326C182.37 127.833 187.48 149.344 187.686 157.193C189.111 155.311 190.914 153.748 192.979 152.606C195.044 151.463 197.325 150.766 199.675 150.559C197.875 142.201 198.227 135.948 200.68 128.046C200.719 127.915 200.795 127.798 200.901 127.71C201.006 127.622 201.134 127.567 201.271 127.552C201.407 127.536 201.544 127.562 201.666 127.624C201.788 127.687 201.889 127.784 201.956 127.903C206.738 136.182 207.304 143.416 210.15 153.307C210.628 154.959 210.464 157.148 212.075 157.738C213.059 158.087 214.144 157.658 215.1 157.235L232.191 149.694C235.082 148.423 237.975 147.143 240.87 145.853C242.3 150.744 242.628 155.892 241.829 160.926Z" fill="#FFF3DB"/>
<path d="M160.988 279.475C160.988 279.475 152.543 216.943 125.911 195.725C125.562 195.456 126.494 195.725 126.522 196.144C127.174 205.606 130.707 278.086 155.344 300.679L160.988 279.475Z" fill="#FFF3DB"/>
<path d="M241.829 160.926C237.05 158.276 233.9 153.245 232.174 149.69C235.064 148.419 237.957 147.139 240.852 145.85C242.289 150.741 242.622 155.89 241.829 160.926Z" fill="#1A2B60"/>
<path d="M196.717 171.63C197.467 173.509 197.481 175.269 196.748 175.562C196.016 175.855 194.816 174.567 194.069 172.692C193.323 170.817 193.306 169.054 194.038 168.76C194.771 168.467 195.971 169.752 196.717 171.63Z" fill="#1A2B60"/>
<path d="M206.571 166.757C207.318 168.631 207.332 170.391 206.599 170.684C205.866 170.978 204.667 169.693 203.92 167.814C203.174 165.936 203.156 164.176 203.889 163.887C204.621 163.597 205.821 164.878 206.571 166.757Z" fill="#1A2B60"/>
<path d="M223.398 185.031C223.398 185.031 213.739 196.413 205.26 185.987" stroke="#1A2B60" stroke-miterlimit="10" stroke-linecap="round"/>
<path d="M51.8054 299.562C51.8054 299.562 44.1315 219.75 71.0181 161.833L79.0059 182.859C83.0758 181.665 87.4026 181.665 91.4725 182.859L99.7743 161.833C99.7743 161.833 134.882 235.388 128.342 308.378L51.8054 299.562Z" fill="white"/>
<path d="M77.8795 194.091C77.8795 196.452 77.2098 198.361 76.3831 198.361C75.5564 198.361 74.8867 196.452 74.8867 194.091C74.8867 191.731 75.5564 189.821 76.3831 189.821C77.2098 189.821 77.8795 191.721 77.8795 194.091Z" fill="#1A2B60"/>
<path d="M88.2673 194.091C88.2673 196.452 87.5975 198.361 86.7708 198.361C85.9441 198.361 85.2744 196.452 85.2744 194.091C85.2744 191.731 85.9441 189.821 86.7708 189.821C87.5975 189.821 88.2673 191.721 88.2673 194.091Z" fill="#1A2B60"/>
<path d="M79.107 209.604L52.5762 191.599" stroke="#1A2B60" stroke-width="0.5" stroke-miterlimit="10" stroke-linecap="round"/>
<path d="M79.1078 209.604L47.2227 217.952" stroke="#1A2B60" stroke-width="0.5" stroke-miterlimit="10" stroke-linecap="round"/>
<path d="M79.1078 209.604L53.9199 206.123" stroke="#1A2B60" stroke-width="0.5" stroke-miterlimit="10" stroke-linecap="round"/>
<path d="M82.8887 209.988L117.149 194.751" stroke="#1A2B60" stroke-width="0.5" stroke-miterlimit="10" stroke-linecap="round"/>
<path d="M82.8887 209.988L114.99 221.074" stroke="#1A2B60" stroke-width="0.5" stroke-miterlimit="10" stroke-linecap="round"/>
<path d="M82.8887 209.988L111.087 207.177" stroke="#1A2B60" stroke-width="0.5" stroke-miterlimit="10" stroke-linecap="round"/>
<path d="M101.076 256.313C113.068 258.757 126.086 255.999 135.957 248.74C140.84 245.144 145.026 240.525 147.757 235.071C150.432 229.645 151.835 223.68 151.859 217.63C151.883 211.579 150.528 205.603 147.897 200.156C146.568 197.458 144.891 194.946 142.909 192.684C140.659 190.118 137.973 187.978 135.207 185.998C129.692 182.049 123.295 178.621 119.259 173.108C117.369 170.527 116.005 167.811 115.516 164.651C115.111 161.709 115.816 158.721 117.494 156.272C121.052 150.902 127.568 148.22 132.664 144.327C135.371 142.257 137.931 139.788 139.382 136.667C140.753 133.706 141.367 130.302 140.509 127.104C140.089 125.58 139.328 124.173 138.284 122.987C137.67 122.289 136.449 122.355 135.817 122.987C135.499 123.319 135.321 123.761 135.321 124.222C135.321 124.682 135.499 125.124 135.817 125.456C136.009 125.663 136.178 125.89 136.32 126.133C136.512 126.44 136.684 126.76 136.832 127.09C136.735 126.87 136.857 127.142 136.867 127.174C136.93 127.341 136.989 127.523 137.045 127.683C137.167 128.088 137.265 128.5 137.338 128.916C137.439 129.478 137.338 128.609 137.37 129.178C137.37 129.3 137.391 129.422 137.398 129.527C137.417 129.897 137.417 130.267 137.398 130.637C137.386 131.299 137.295 131.956 137.125 132.596C136.428 135.501 134.774 137.854 132.493 139.928C127.701 144.31 121.331 146.803 116.776 151.604C114.494 154.009 112.674 156.98 112.136 160.297C111.65 163.587 112.111 166.946 113.465 169.983C114.811 173.052 116.713 175.846 119.074 178.223C121.516 180.743 124.422 182.817 127.313 184.797C130.205 186.777 133.076 188.582 135.769 190.733C137.062 191.757 138.287 192.864 139.438 194.046C139.903 194.53 140.353 195.029 140.788 195.544C141.322 196.172 141.545 196.462 141.977 197.059C142.83 198.239 143.604 199.475 144.294 200.757C144.914 201.907 145.464 203.094 145.94 204.311C146.973 206.99 147.687 209.781 148.068 212.628C148.033 212.369 148.068 212.673 148.068 212.711C148.089 212.893 148.113 213.061 148.134 213.26C148.172 213.609 148.207 213.989 148.235 214.356C148.296 215.089 148.333 215.825 148.347 216.563C148.381 217.974 148.337 219.387 148.214 220.794C148.183 221.143 148.145 221.527 148.103 221.894C148.082 222.076 148.061 222.243 148.036 222.442C148.075 222.163 148.019 222.55 148.012 222.617C147.9 223.376 147.765 224.13 147.607 224.879C147.32 226.259 146.954 227.622 146.512 228.961C146.299 229.603 146.069 230.235 145.814 230.864C145.56 231.492 145.385 231.911 145.04 232.634C143.212 236.493 140.668 239.969 137.544 242.878C135.481 244.839 133.195 246.55 130.732 247.975C128.295 249.436 125.707 250.626 123.012 251.526C117.554 253.392 111.761 254.077 106.018 253.534C104.674 253.414 103.338 253.213 102.017 252.933C101.572 252.821 101.1 252.885 100.701 253.112C100.301 253.339 100.005 253.712 99.8721 254.152C99.6349 255.014 100.162 256.111 101.089 256.299L101.076 256.313Z" fill="white"/>
<path d="M168.613 72.5425C168.613 72.5425 230.033 70.0426 240.35 128.249" stroke="#36D6AD" stroke-width="2" stroke-miterlimit="10" stroke-linecap="round"/>
<path d="M122.144 34.7473C118.399 33.7909 114.929 31.9752 112.006 29.4439C109.084 26.9127 106.79 23.7353 105.307 20.1634C104.372 17.8625 103.793 15.3102 104.375 12.8976C104.958 10.485 106.957 8.29584 109.43 8.12127C111.331 7.9851 113.162 9.03252 114.432 10.4536C115.701 11.8746 116.525 13.6413 117.296 15.3766C116.04 12.2342 114.767 8.86494 115.394 5.53407C116.022 2.2032 119.402 -0.837877 122.625 0.209567C125.416 1.11386 126.591 4.34697 127.216 7.19252C129.228 16.4205 129.166 26.5528 124.474 34.7438" fill="#FC7071"/>
<path d="M150.503 38.4761C148.664 36.4941 147.311 34.1105 146.551 31.5143C145.792 28.9181 145.647 26.1805 146.129 23.5186C146.45 21.8113 147.074 20.0935 148.33 18.8959C149.586 17.6983 151.591 17.1711 153.109 18.0055C154.277 18.648 154.957 19.9573 155.163 21.2736C155.369 22.5898 155.163 23.9341 154.985 25.2504C155.439 22.925 155.962 20.467 157.594 18.7457C159.227 17.0244 162.359 16.5252 163.873 18.3617C165.164 19.9468 164.637 22.2966 163.922 24.2134C161.609 30.4003 157.741 36.3323 151.881 39.3664" fill="#FCF0E3"/>
<path d="M139.902 65.1474C138.187 66.0609 136.283 66.5621 134.341 66.6112C132.398 66.6603 130.471 66.256 128.712 65.4302C127.589 64.8926 126.508 64.1419 125.922 63.0455C125.336 61.9492 125.322 60.4618 126.184 59.5541C126.535 59.2273 126.956 58.9837 127.414 58.8411C127.872 58.6985 128.356 58.6606 128.831 58.7301C129.779 58.8757 130.698 59.1654 131.559 59.589C130.031 58.8418 128.419 58.0248 127.526 56.5724C126.633 55.1199 126.86 52.8469 128.412 52.1451C129.752 51.5376 131.287 52.3372 132.483 53.1926C136.351 55.9404 139.759 59.7286 140.785 64.3653" fill="#36D6AD"/>
<path d="M31.0088 189C27 195 12 240.5 46.1746 287.089" stroke="#36D6AD" stroke-width="2" stroke-miterlimit="10" stroke-linecap="round"/>
</svg>
