<svg width="135" height="666" viewBox="0 0 135 666" fill="none" xmlns="http://www.w3.org/2000/svg">
<path d="M46.6496 246.6C35.1296 149.96 101.05 58.6 135.45 25V635.4C18.9696 601.48 3.14438 519.054 34.6496 472.2C84.6772 397.8 58.1696 343.24 46.6496 246.6Z" fill="#36D6AD"/>
<path d="M135.45 1C79.0843 33 10.2843 152.2 21.0496 246.6C31.8149 341 68.0557 377.151 21.0496 457.8C-20.9157 529.8 -3.43041 627.88 135.45 665M135.45 25C101.05 58.6 35.1296 149.96 46.6496 246.6C58.1696 343.24 84.6772 397.8 34.6496 472.2C3.14438 519.054 18.9696 601.48 135.45 635.4V25Z" stroke="#36D6AD" stroke-width="2"/>
</svg>
