<svg width="18" height="16" viewBox="0 0 18 16" fill="none" xmlns="http://www.w3.org/2000/svg">
<path d="M12.0477 8.90886L11.1477 8.02996C11.5023 7.08448 11.3182 6.29879 10.5955 5.67291C9.87273 5.04703 9.08864 4.88722 8.24318 5.19351L7.34318 4.31461C7.575 4.16812 7.83409 4.06159 8.12045 3.99501C8.40682 3.92842 8.7 3.89513 9 3.89513C9.96818 3.89513 10.7898 4.22472 11.4648 4.8839C12.1398 5.54307 12.4773 6.3454 12.4773 7.29089C12.4773 7.58385 12.4398 7.87349 12.3648 8.1598C12.2898 8.44611 12.1841 8.6958 12.0477 8.90886ZM14.6864 11.4856L13.8682 10.6866C14.5364 10.2072 15.1193 9.67124 15.617 9.07865C16.1148 8.48606 16.4795 7.89014 16.7114 7.29089C16.0295 5.81273 15.0068 4.6442 13.6432 3.78527C12.2795 2.92634 10.8 2.49688 9.20455 2.49688C8.63182 2.49688 8.04545 2.55015 7.44545 2.65668C6.84545 2.76321 6.375 2.88972 6.03409 3.03621L5.09318 2.09738C5.57045 1.88431 6.18068 1.69788 6.92386 1.53808C7.66705 1.37828 8.39318 1.29838 9.10227 1.29838C11.0523 1.29838 12.8352 1.84103 14.4511 2.92634C16.067 4.01165 17.25 5.4665 18 7.29089C17.6455 8.14315 17.1886 8.92218 16.6295 9.62797C16.0705 10.3337 15.4227 10.953 14.6864 11.4856ZM15.8727 16L12.4364 12.7041C11.9591 12.8906 11.4205 13.0337 10.8205 13.1336C10.2205 13.2335 9.61364 13.2834 9 13.2834C7.00909 13.2834 5.20227 12.7407 3.57955 11.6554C1.95682 10.5701 0.763636 9.11527 0 7.29089C0.272727 6.59842 0.651136 5.9226 1.13523 5.26342C1.61932 4.60424 2.20909 3.97503 2.90455 3.37578L0.327273 0.858926L1.18636 0L16.6705 15.1211L15.8727 16ZM3.74318 4.21473C3.23864 4.57428 2.75114 5.04702 2.28068 5.63296C1.81023 6.21889 1.47273 6.77154 1.26818 7.29089C1.96364 8.76904 3.01023 9.93758 4.40795 10.7965C5.80568 11.6554 7.39091 12.0849 9.16364 12.0849C9.61364 12.0849 10.0568 12.0583 10.4932 12.005C10.9295 11.9517 11.2568 11.8718 11.475 11.7653L10.1659 10.4869C10.0159 10.5535 9.83182 10.6034 9.61364 10.6367C9.39545 10.67 9.19091 10.6866 9 10.6866C8.04545 10.6866 7.22727 10.3604 6.54545 9.70787C5.86364 9.05535 5.52273 8.24969 5.52273 7.29089C5.52273 7.09114 5.53977 6.89139 5.57386 6.69164C5.60795 6.49189 5.65909 6.31211 5.72727 6.15231L3.74318 4.21473Z" fill="#fc6e6e"/>
</svg>
