<svg width="24" height="20" viewBox="0 0 24 20" fill="none" xmlns="http://www.w3.org/2000/svg">
<path d="M2.54206 19.0073C2.07928 19.0073 1.67435 18.8304 1.32727 18.4767C0.980182 18.1231 0.806641 17.7104 0.806641 17.2388V1.91247C0.806641 1.44089 0.980182 1.02826 1.32727 0.674571C1.67435 0.320886 2.07928 0.144043 2.54206 0.144043H22.2101C22.6729 0.144043 23.0778 0.320886 23.4249 0.674571C23.772 1.02826 23.9455 1.44089 23.9455 1.91247V17.2388C23.9455 17.7104 23.772 18.1231 23.4249 18.4767C23.0778 18.8304 22.6729 19.0073 22.2101 19.0073H2.54206ZM12.3761 10.1062L2.54206 3.53353V17.2388H22.2101V3.53353L12.3761 10.1062ZM12.3761 8.33776L22.0944 1.91247H2.68668L12.3761 8.33776ZM2.54206 3.53353V1.91247V3.53353V17.2388V3.53353Z" fill="#fc6e6e"/>
</svg>
