<svg width="294" height="378" viewBox="0 0 294 378" fill="none" xmlns="http://www.w3.org/2000/svg">
<g clip-path="url(#clip0_596_406)">
<path d="M163.189 51.0814C159.496 58.6128 153.492 73.6574 158.192 78.5875C162.847 83.4589 167.552 81.1271 167.552 81.1271C167.552 81.1271 162.247 93.7505 168.571 99.6272C176.387 106.893 183.603 100.552 183.603 100.552C183.603 100.552 181.893 110.008 192.143 112.969C200.44 115.366 208.543 104.328 208.543 104.328C208.543 104.328 208.96 109.57 215.541 111.044C222.186 112.535 231.986 99.6538 236.54 92.6127C241.567 84.8399 297.967 -11.8581 297.967 -11.8581L219.17 -56.4546C219.17 -56.4546 167.265 42.7716 163.189 51.0814Z" fill="#DEB180"/>
<path d="M195.712 76.1775C207.335 82.7537 223.059 79.9413 220.404 70.3621C217.75 60.7829 209.642 66.6946 202.851 62.8493C196.437 59.2001 196.694 50.8845 189.117 51.4414C181.54 51.9983 182.544 68.7224 195.712 76.1775Z" fill="#2D2B2C"/>
<path d="M216.866 104.993C220.17 106.502 222.874 103.547 224.436 99.8898C225.999 96.2329 225.32 92.8163 223.023 91.8207C220.726 90.8251 217.145 93.0369 215.254 96.8103C213.363 100.584 214.181 103.768 216.866 104.993Z" fill="#2D2B2C"/>
<path d="M199.116 93.9304C196.816 92.9332 193.238 95.1466 191.345 98.9228C189.452 102.699 190.266 105.885 192.957 107.105C196.262 108.615 198.966 105.659 200.529 102C202.093 98.3398 201.413 94.926 199.116 93.9304Z" fill="#2D2B2C"/>
<path d="M180.078 83.1536C177.781 82.1579 174.199 84.3726 172.31 88.1476C170.422 91.9225 171.231 95.1096 173.922 96.3297C177.224 97.8378 179.931 94.884 181.493 91.2271C183.055 87.5702 182.373 84.152 180.078 83.1536Z" fill="#2D2B2C"/>
<path d="M162.735 67.0801C160.853 70.8627 161.656 74.0422 164.347 75.2623C167.649 76.7704 170.355 73.8166 171.919 70.1569C173.483 66.4971 172.8 63.0818 170.503 62.0861C168.206 61.0905 164.611 63.2944 162.735 67.0801Z" fill="#2D2B2C"/>
<g opacity="0.2">
<path opacity="0.2" d="M205.86 76.1864C212.699 76.8994 217.218 74.1913 216.427 71.3368C215.636 68.4824 209.661 72.4549 205.645 71.2517C201.875 70.118 196.272 67.4006 194.985 68.8284C192.829 71.2177 198.475 75.4155 205.86 76.1864Z" fill="white"/>
<path opacity="0.2" d="M218.178 102.615C219.566 103.502 221.016 101.637 221.892 100.306C222.619 99.2038 223.504 97.5179 222.526 96.769C221.549 96.02 220.388 97.6493 219.483 98.5381C218.577 99.4269 217.046 101.89 218.178 102.615Z" fill="white"/>
<path opacity="0.2" d="M198.189 99.552C197.21 98.7987 196.051 100.432 195.143 101.324C194.236 102.216 192.708 104.673 193.84 105.399C195.227 106.288 196.678 104.42 197.554 103.089C198.284 101.981 199.168 100.298 198.189 99.552Z" fill="white"/>
<path opacity="0.2" d="M174.835 94.3291C176.222 95.2182 177.673 93.3507 178.549 92.0191C179.275 90.9202 180.164 89.2331 179.182 88.4853C178.2 87.7376 177.045 89.3629 176.138 90.2545C175.231 91.146 173.701 93.6064 174.835 94.3291Z" fill="white"/>
<path opacity="0.2" d="M164.842 72.8291C166.229 73.7182 167.681 71.8507 168.557 70.5191C169.282 69.4202 170.172 67.7331 169.191 66.9826C168.211 66.232 167.053 67.8629 166.146 68.7545C165.239 69.646 163.709 72.1064 164.842 72.8291Z" fill="white"/>
</g>
<path d="M226.755 -45.0547C223.278 -47.0516 219.674 -48.8178 215.965 -50.3417C213.655 -45.9173 210.243 -39.3933 206.246 -31.7427C218.697 -24.9808 234.422 -19.3051 237.941 -18.2439C252.955 -13.7095 268.864 -12.1338 282.669 -4.31292C285.128 -2.91343 287.883 -1.23138 290.626 0.703931C293.099 -3.53146 295.077 -6.92239 296.355 -9.11066C292.905 -10.0254 289.42 -10.9896 285.938 -12.2002C271.293 -17.2873 258.146 -27.272 244.654 -34.9261L226.755 -45.0547Z" fill="#2D2B2C"/>
<path d="M194.808 -9.8283C198.472 -4.62784 204.934 -1.8442 210.885 1.17164C230.657 11.2507 253.018 20.8686 271.002 34.2652C273.958 29.2193 276.858 24.2599 279.611 19.5507C274.821 16.688 270.939 14.0383 269.629 13.1303C251.21 0.582859 227.335 -24.3935 202.661 -24.8732C200.146 -20.0575 197.501 -14.9907 194.808 -9.8283Z" fill="#2D2B2C"/>
<path d="M184.038 10.8187C180.477 17.6577 177.071 24.1965 174.071 29.9698C178.163 33.9227 182.641 37.4547 187.438 40.5128C199.411 48.1143 212.428 53.8236 225.45 59.2952C233.818 62.8156 242.647 65.1494 251.332 67.7826C254.319 62.7139 257.57 57.1762 260.926 51.461C242.168 42.5482 224.754 30.3244 206.241 20.9546C203.615 19.6125 193.703 14.4504 184.038 10.8187Z" fill="#2D2B2C"/>
</g>
<g clip-path="url(#clip1_596_406)">
<path d="M162.734 152.68C162.734 152.68 151.362 145.653 149.626 147.611C147.458 150.042 157.897 159.373 157.897 159.373L162.734 152.68Z" fill="#7A796E"/>
<path d="M144.026 185.737C144.026 185.737 130.788 184.022 130.003 186.533C129.026 189.644 142.386 193.826 142.386 193.826L144.026 185.737Z" fill="#7A796E"/>
<path d="M192.979 256.836C192.979 256.836 187.237 268.888 184.708 268.197C181.566 267.327 185.302 253.826 185.302 253.826L192.979 256.836Z" fill="#7A796E"/>
<path d="M159.36 239.181C159.36 239.181 149.162 247.795 147.139 246.11C144.636 244.025 153.599 233.271 153.599 233.271L159.36 239.181Z" fill="#7A796E"/>
<path d="M163.253 149.324C144.934 160.577 158.262 176.605 158.262 176.605C158.262 176.605 137.891 177.3 139.028 192.508C139.943 204.732 150.318 210.775 153.325 211.597C151.351 213.65 145.545 226.173 152.813 236.56C161.723 249.292 176.016 238.734 176.016 238.734C176.016 238.734 173.352 259.419 194.841 259.096C212.091 258.845 207.53 234.579 214.459 231.582C221.387 228.585 318.052 211.674 318.052 211.674L292.687 123.347C292.687 123.347 202.023 160.856 194.566 162.038C187.109 163.221 177.964 140.292 163.253 149.324Z" fill="#FCF0E3"/>
<path d="M176.169 204.557C179.729 217.627 192.967 226.95 197.96 218.201C202.954 209.452 192.922 207.828 190.839 200.182C188.871 192.961 195.051 187.214 189.242 182.146C183.433 177.077 172.136 189.756 176.169 204.557Z" fill="#1A1A1A"/>
<path d="M187.075 244.277C185.855 248.378 187.206 251.416 190.104 252.173C193.664 253.101 195.848 249.698 196.772 245.765C197.697 241.833 196.427 238.546 193.966 237.944C191.505 237.342 188.294 240.159 187.075 244.277Z" fill="#1A1A1A"/>
<path d="M168.936 220.619C166.928 219.065 162.854 220.337 160.066 223.583C157.279 226.829 157.277 230.155 159.613 232.025C162.487 234.328 165.88 232.114 168.315 228.904C170.751 225.693 170.94 222.173 168.936 220.619Z" fill="#1A1A1A"/>
<path d="M163.898 159.308C162.006 161.626 162.713 164.878 166.121 167.468C169.529 170.057 173.782 170.455 175.412 168.505C177.043 166.556 176.123 163.166 173.065 160.535C170.007 157.904 166.225 156.455 163.898 159.308Z" fill="#1A1A1A"/>
<path d="M148.408 193.177C147.628 196.069 149.589 198.752 153.761 199.723C157.934 200.693 161.966 199.314 162.666 196.874C163.366 194.433 161.136 191.705 157.278 190.561C153.419 189.416 149.372 189.626 148.408 193.177Z" fill="#1A1A1A"/>
<path d="M218.525 223.55C220.991 223.03 223.459 222.503 225.932 222.022C227.832 221.657 229.978 221.103 231.898 221.195C232.955 221.246 233.909 220.282 233.958 219.457C234.028 218.477 233.15 217.942 232.092 217.891C229.952 217.798 227.544 218.417 225.417 218.82C222.828 219.309 220.248 219.867 217.67 220.41C215.16 220.942 216.031 224.077 218.528 223.559L218.525 223.55Z" fill="#2D2B2C"/>
<path d="M227.244 214.205C229.519 213.308 231.794 212.407 234.095 211.567C235.815 210.936 238.391 209.977 239.792 209.826C242.313 209.558 242.532 206.247 239.986 206.522C237.796 206.753 235.652 207.561 233.59 208.301C231.165 209.169 228.78 210.123 226.389 211.065C225.382 211.461 224.642 212.218 224.9 213.162C225.11 213.934 226.236 214.608 227.247 214.214L227.244 214.205Z" fill="#2D2B2C"/>
<path d="M218.181 205.149C219.642 204.437 221.024 203.596 222.419 202.79C223.157 202.362 223.902 201.936 224.652 201.526C224.944 201.358 225.267 201.192 225.582 201.035C225.71 200.97 225.841 200.907 225.97 200.848C226.515 200.592 225.634 200.94 226.071 200.821C228.513 200.064 227.667 196.922 225.213 197.672C223.764 198.12 222.438 198.969 221.159 199.703C219.567 200.617 217.999 201.579 216.338 202.4C214.05 203.514 215.897 206.262 218.181 205.149Z" fill="#2D2B2C"/>
<path d="M209.771 188.391C215.115 187.127 220.227 185.112 225.514 183.652C227.988 182.977 227.13 179.828 224.656 180.502C219.369 181.963 214.257 183.978 208.913 185.241C206.415 185.831 207.28 188.968 209.771 188.391Z" fill="#2D2B2C"/>
<path d="M233.392 189.373C237.001 188.163 240.784 187.359 244.211 185.691C246.494 184.572 244.647 181.824 242.364 182.94C239.284 184.456 235.802 185.137 232.543 186.232C230.129 187.042 230.969 190.186 233.401 189.381L233.392 189.373Z" fill="#2D2B2C"/>
<path d="M234.089 172.99C236.188 171.555 238.81 170.641 241.337 170.122C243.864 169.603 242.974 166.472 240.479 166.973C237.234 167.636 234.152 168.935 231.411 170.796C231.227 170.926 231.075 171.097 230.967 171.295C230.859 171.493 230.797 171.713 230.788 171.939C230.778 172.164 230.82 172.389 230.911 172.596C231.002 172.802 231.138 172.985 231.311 173.131C232.106 173.78 233.216 173.576 234.086 172.977L234.089 172.99Z" fill="#2D2B2C"/>
<path d="M207.185 174.869C210.326 173.506 212.633 170.827 215.981 169.837C218.434 169.108 217.585 165.966 215.123 166.688C211.335 167.808 208.851 170.582 205.336 172.112C202.998 173.127 204.857 175.872 207.182 174.86L207.185 174.869Z" fill="#2D2B2C"/>
<path d="M235.029 158.075C239.336 155.748 244.093 154.253 248.529 152.148C250.83 151.061 248.975 148.305 246.683 149.4C242.247 151.494 237.49 153 233.184 155.323C230.961 156.524 232.796 159.279 235.029 158.075Z" fill="#2D2B2C"/>
<path d="M258.619 166.987C262.225 165.767 265.77 164.385 269.452 163.358C271.924 162.685 271.069 159.535 268.594 160.209C264.918 161.231 261.372 162.613 257.761 163.837C255.348 164.654 256.185 167.799 258.619 166.987Z" fill="#2D2B2C"/>
<path d="M244.117 199.49C247.411 198.812 250.699 198.136 253.95 197.261C256.425 196.587 255.572 193.456 253.092 194.112C249.844 194.996 246.553 195.663 243.259 196.341C240.748 196.859 241.623 199.993 244.117 199.49Z" fill="#2D2B2C"/>
<path d="M244.204 218.965C247.702 218.5 251.197 218.596 254.696 218.137C257.2 217.793 257.42 214.496 254.89 214.833C251.393 215.299 247.898 215.202 244.402 215.661C241.895 216.005 241.678 219.302 244.204 218.965Z" fill="#2D2B2C"/>
<path d="M258.313 208.227C262.185 206.942 266.058 205.664 269.85 204.184C270.858 203.791 271.597 203.032 271.34 202.087C271.129 201.315 270.004 200.644 268.992 201.035C265.2 202.514 261.328 203.799 257.455 205.078C255.035 205.879 255.875 209.027 258.313 208.227Z" fill="#2D2B2C"/>
<path d="M281.96 208.29C286.567 206.839 291.326 206.043 295.527 203.633C297.71 202.385 295.881 199.626 293.684 200.884C289.798 203.11 285.36 203.808 281.105 205.15C278.67 205.919 279.512 209.062 281.963 208.299L281.96 208.29Z" fill="#2D2B2C"/>
<path d="M271.034 194.406C275.07 193.266 278.772 191.391 282.272 189.261C284.403 187.959 282.58 185.198 280.425 186.513C277.221 188.465 273.879 190.221 270.178 191.266C267.713 191.962 268.562 195.09 271.036 194.416L271.034 194.406Z" fill="#2D2B2C"/>
<path d="M255.744 185.696C259.395 184.059 263.129 182.612 266.929 181.36C269.347 180.552 268.507 177.408 266.071 178.211C261.935 179.576 257.872 181.154 253.898 182.938C251.577 183.99 253.432 186.732 255.742 185.687L255.744 185.696Z" fill="#2D2B2C"/>
<path d="M271.454 171.747C274.595 169.86 279.041 168.598 282.711 168.68C285.231 168.741 285.4 165.434 282.908 165.375C278.632 165.275 273.274 166.796 269.611 168.998C267.467 170.289 269.29 173.05 271.454 171.747Z" fill="#2D2B2C"/>
<path d="M285.179 179.761C288.427 178.876 291.687 177.541 295.057 177.685C296.118 177.735 297.069 176.775 297.116 175.944C297.188 174.97 296.31 174.424 295.251 174.378C291.533 174.224 287.9 175.63 284.323 176.621C281.849 177.295 282.707 180.445 285.181 179.77L285.179 179.761Z" fill="#2D2B2C"/>
<path d="M294.228 192.806C297.021 191.788 299.565 190.313 302.324 189.247C303.333 188.857 304.074 188.094 303.817 187.149C303.606 186.374 302.48 185.713 301.466 186.098C298.715 187.155 296.153 188.638 293.37 189.657C292.352 190.025 291.624 190.809 291.881 191.754C292.096 192.544 293.21 193.171 294.228 192.806Z" fill="#2D2B2C"/>
<path d="M288.493 162.89C290.216 161.378 292.391 160.373 294.412 159.2C296.583 157.932 294.756 155.179 292.568 156.448C290.25 157.796 287.795 158.976 285.818 160.706C283.974 162.321 286.644 164.506 288.493 162.89Z" fill="#2D2B2C"/>
<path d="M273.052 153.129C273.2 152.94 272.733 153.408 273.148 153.069C273.313 152.946 273.298 152.95 273.104 153.081C273.252 152.98 273.409 152.886 273.563 152.797C274.146 152.461 274.746 152.157 275.362 151.887C276.873 151.216 278.417 150.623 279.988 150.109C281.639 149.548 283.321 149.049 285.015 148.621C286.307 148.296 286.955 148.093 288.094 148.121C290.61 148.193 290.776 144.887 288.287 144.814C286.943 144.777 285.478 145.166 284.161 145.488C282.261 145.955 280.395 146.541 278.541 147.178C276.675 147.805 274.843 148.53 273.053 149.35C271.819 149.926 270.513 150.627 269.721 151.648C268.268 153.519 271.591 154.992 273.032 153.114L273.052 153.129Z" fill="#2D2B2C"/>
<path d="M285.715 141.336C287.099 140.731 288.52 140.213 289.968 139.785C292.433 139.089 291.584 135.961 289.11 136.635C287.324 137.17 285.573 137.817 283.868 138.571C283.655 138.658 283.463 138.788 283.304 138.955C283.146 139.121 283.024 139.319 282.947 139.536C282.87 139.752 282.84 139.983 282.859 140.212C282.877 140.442 282.944 140.665 283.054 140.866C283.612 141.672 284.722 141.742 285.712 141.323L285.715 141.336Z" fill="#2D2B2C"/>
<path d="M255.121 156.88C256.137 155.277 258.173 154.232 259.689 152.977C261.585 151.408 258.913 149.223 257.013 150.793C255.22 152.296 253.019 153.491 251.806 155.398C250.593 157.305 253.879 158.842 255.121 156.88Z" fill="#2D2B2C"/>
<path d="M212.165 163.905C215.238 163.034 218.128 161.651 221.262 160.98C223.769 160.439 222.898 157.303 220.404 157.83C217.27 158.502 214.38 159.884 211.308 160.759C208.844 161.457 209.692 164.582 212.166 163.908L212.165 163.905Z" fill="#2D2B2C"/>
<g opacity="0.26">
<path opacity="0.26" d="M183.07 212.344C187.436 217.782 192.606 219.103 194.091 216.496C195.576 213.889 188.461 212.421 186.463 208.669C184.587 205.144 182.553 199.166 180.602 199.258C177.347 199.41 178.356 206.473 183.07 212.344Z" fill="#F08641"/>
<path opacity="0.26" d="M191.684 250.832C193.193 251.548 194.419 249.475 195.121 248.035C195.71 246.836 196.383 245.032 195.306 244.399C194.228 243.766 193.257 245.559 192.475 246.567C191.692 247.576 190.454 250.247 191.684 250.832Z" fill="#F08641"/>
<path opacity="0.26" d="M160.832 230.872C161.8 232.232 163.878 231.016 165.193 230.103C166.289 229.341 167.757 228.095 167.122 227.017C166.487 225.938 164.764 227.04 163.594 227.531C162.424 228.023 160.04 229.761 160.832 230.872Z" fill="#F08641"/>
<path opacity="0.26" d="M150.059 194.638C149.444 196.189 151.588 197.266 153.069 197.878C154.302 198.388 156.146 198.944 156.707 197.827C157.267 196.71 155.419 195.867 154.356 195.139C153.293 194.41 150.558 193.372 150.059 194.638Z" fill="#F08641"/>
<path opacity="0.26" d="M164.735 161.191C163.688 162.491 165.412 164.169 166.644 165.194C167.67 166.047 169.262 167.129 170.131 166.229C171.001 165.33 169.487 163.976 168.69 162.962C167.894 161.947 165.591 160.129 164.735 161.191Z" fill="#F08641"/>
</g>
</g>
<g clip-path="url(#clip2_596_406)">
<path d="M45.9752 115.896C45.9752 115.896 37.3364 125.201 38.8434 127.196C40.7088 129.669 51.322 121.636 51.322 121.636L45.9752 115.896Z" fill="#2D2B2C"/>
<path d="M73.3388 139.454C73.3388 139.454 69.3056 151.492 71.5017 152.689C74.22 154.171 80.5764 142.474 80.5764 142.474L73.3388 139.454Z" fill="#2D2B2C"/>
<path d="M148.593 106.879C148.593 106.879 158.778 114.462 157.66 116.696C156.273 119.451 144.38 113.493 144.38 113.493L148.593 106.879Z" fill="#2D2B2C"/>
<path d="M125.962 135.014C125.962 135.014 132.112 146.119 130.167 147.677C127.746 149.632 119.387 139.267 119.387 139.267L125.962 135.014Z" fill="#2D2B2C"/>
<path d="M42.9437 114.785C50.0604 133.953 67.4563 124.472 67.4563 124.472C67.4563 124.472 64.3567 143.612 78.7372 145.355C90.297 146.754 97.8352 138.186 99.1537 135.533C100.703 137.753 111.304 145.481 122.324 140.612C135.826 134.649 128.615 119.362 128.615 119.362C128.615 119.362 147.391 125.667 151.05 105.545C153.988 89.4039 130.54 89.1864 129.022 82.1654C127.505 75.1445 129.525 -18.1667 129.525 -18.1667L42.5569 -10.7886C42.5569 -10.7886 60.8354 80.7418 60.5693 87.9175C60.3033 95.0933 37.2342 99.4002 42.9437 114.785Z" fill="#FDBF12"/>
<path d="M96.7808 112.936C109.611 112.023 120.734 101.391 113.503 95.1165C106.271 88.8416 101.951 86.1489 94.4524 86.6835C87.36 87.1875 84.1001 92.1172 78.3103 96.6024C72.5205 101.088 82.2607 113.961 96.7808 112.936Z" fill="#2D2B2C"/>
<path d="M135.803 110.074C139.404 111.972 142.483 111.27 143.719 108.707C145.239 105.553 142.484 102.877 138.975 101.301C135.465 99.7243 132.186 100.293 131.171 102.481C130.156 104.668 132.203 108.18 135.803 110.074Z" fill="#2D2B2C"/>
<path d="M110.424 122.64C108.62 124.226 109.042 128.266 111.556 131.466C114.069 134.666 117.168 135.279 119.34 133.444C122.013 131.186 120.574 127.614 118.028 124.744C115.483 121.875 112.242 121.056 110.424 122.64Z" fill="#2D2B2C"/>
<path d="M52.3663 116.034C54.1808 118.227 57.3361 118.155 60.378 115.467C63.42 112.78 64.5641 108.869 63.0551 106.985C61.5461 105.101 58.2107 105.336 55.1961 107.706C52.1815 110.077 50.1348 113.332 52.3663 116.034Z" fill="#2D2B2C"/>
<path d="M81.084 136.739C83.6333 138.003 86.4953 136.661 88.1665 132.953C89.8377 129.244 89.2961 125.22 87.1518 124.116C85.0075 123.011 82.0544 124.588 80.27 127.98C78.4855 131.373 77.9464 135.184 81.084 136.739Z" fill="#2D2B2C"/>
<path d="M106.923 43.164C97.9166 46.717 101.826 61.1982 106.56 66.3353C110.962 71.1293 121.44 73.0286 128.509 70.2572C128.404 61.686 128.47 49.4479 128.611 36.7838C125.899 39.1078 123.143 41.5802 119.93 42.7802C115.612 44.4075 110.847 41.6152 106.923 43.164Z" fill="#2D2B2C"/>
<path d="M55.1745 54.6162C64.3318 53.4682 71.596 50.8147 78.5558 43.3676C85.7728 35.6464 92.6698 28.2252 100.971 21.6387C107.116 16.7748 109.668 12.6548 109.114 4.89037C108.663 -1.34071 107.596 -9.31575 104.783 -16.057L42.5554 -10.7749C42.5554 -10.7749 49.8673 25.8745 55.1745 54.6162Z" fill="#2D2B2C"/>
<g opacity="0.33">
<path opacity="0.33" d="M105.184 108.315C111.052 105.241 113.249 100.643 111.08 98.7922C108.91 96.9415 106.244 103.297 102.38 104.467C98.7517 105.567 92.8071 106.366 92.5322 108.202C92.0758 111.269 98.8454 111.628 105.184 108.315Z" fill="#DEB180"/>
<path opacity="0.33" d="M142.631 107.369C143.577 106.097 141.868 104.57 140.657 103.641C139.648 102.872 138.091 101.912 137.303 102.798C136.515 103.685 138.004 104.913 138.8 105.841C139.595 106.769 141.862 108.411 142.631 107.369Z" fill="#DEB180"/>
<path opacity="0.33" d="M118.359 132.482C119.802 131.831 119.059 129.665 118.443 128.271C117.934 127.108 117.043 125.51 115.918 125.906C114.793 126.303 115.504 128.093 115.749 129.295C115.993 130.497 117.176 133.018 118.359 132.482Z" fill="#DEB180"/>
<path opacity="0.33" d="M82.6113 135.855C83.9419 136.703 85.3576 134.927 86.1977 133.643C86.8975 132.592 87.7561 130.97 86.8167 130.239C85.8772 129.508 84.7549 131.079 83.8787 131.935C83.0025 132.791 81.5212 135.156 82.6113 135.855Z" fill="#DEB180"/>
<path opacity="0.33" d="M54.1417 115.991C55.1581 117.198 57.0441 115.908 58.2238 114.947C59.2101 114.145 60.511 112.858 59.8316 111.882C59.1523 110.907 57.6134 112.071 56.5239 112.624C55.4344 113.177 53.3115 114.978 54.1417 115.991Z" fill="#DEB180"/>
</g>
</g>
<defs>
<clipPath id="clip0_596_406">
<rect width="90.5386" height="161.323" fill="white" transform="translate(218.188 128.344) rotate(-150.361)"/>
</clipPath>
<clipPath id="clip1_596_406">
<rect width="125.831" height="175.006" fill="white" transform="translate(154.354 276.595) rotate(-105.24)"/>
</clipPath>
<clipPath id="clip2_596_406">
<rect width="119.525" height="166.567" fill="white" transform="translate(160.595 144.841) rotate(174.309)"/>
</clipPath>
</defs>
</svg>
