<svg width="224" height="339" viewBox="0 0 224 339" fill="none" xmlns="http://www.w3.org/2000/svg">
<g clip-path="url(#clip0_575_69)">
<path d="M131.124 60.5928C126.222 66.5439 117.656 78.723 120.812 84.1304C123.94 89.476 128.643 88.3902 128.643 88.3902C128.643 88.3902 121.217 98.5526 125.625 105.152C131.071 113.31 138.871 109.172 138.871 109.172C138.871 109.172 135.333 117.266 143.871 122.091C150.781 125.998 160.373 117.847 160.373 117.847C160.373 117.847 159.633 122.625 165.205 125.341C170.831 128.086 182.332 118.648 187.901 113.319C194.047 107.435 265.031 32.9382 265.031 32.9382L204.035 -23.6856C204.035 -23.6856 136.535 54.0272 131.124 60.5928Z" fill="#DEB180"/>
<path d="M154.879 89.9449C163.876 98.2955 178.536 99.1209 178.197 89.9901C177.859 80.8593 169.351 84.4236 164.095 79.5419C159.134 74.9158 161.13 67.5335 154.236 66.4219C147.341 65.3103 144.686 80.4803 154.879 89.9449Z" fill="#2D2B2C"/>
<path d="M167.676 120.209C170.31 122.261 173.356 120.192 175.53 117.254C177.704 114.315 177.823 111.115 175.981 109.737C174.138 108.359 170.466 109.576 167.973 112.549C165.479 115.522 165.534 118.544 167.676 120.209Z" fill="#2D2B2C"/>
<path d="M154.152 106.545C152.308 105.164 148.637 106.384 146.142 109.359C143.647 112.334 143.698 115.356 145.845 117.019C148.48 119.071 151.526 117.002 153.702 114.061C155.878 111.121 155.995 107.923 154.152 106.545Z" fill="#2D2B2C"/>
<path d="M139.416 92.8633C137.573 91.485 133.899 92.7044 131.408 95.6793C128.917 98.6541 128.963 101.676 131.111 103.339C133.744 105.389 136.792 103.323 138.966 100.384C141.14 97.4455 141.256 94.2439 139.416 92.8633Z" fill="#2D2B2C"/>
<path d="M127.32 74.8042C124.833 77.7872 124.876 80.8012 127.023 82.4641C129.656 84.5143 132.704 82.4477 134.88 79.5069C137.056 76.5662 137.171 73.3666 135.328 71.9883C133.485 70.6099 129.802 71.8171 127.32 74.8042Z" fill="#2D2B2C"/>
<g opacity="0.2">
<path opacity="0.2" d="M163.952 92.1093C169.917 94.2 174.534 92.7381 174.433 90.0173C174.332 87.2965 168.144 89.5797 164.808 87.6505C161.677 85.8356 157.244 82.215 155.79 83.2187C153.354 84.8974 157.512 89.851 163.952 92.1093Z" fill="white"/>
<path opacity="0.2" d="M169.354 118.363C170.407 119.45 172.1 118.091 173.166 117.086C174.05 116.255 175.2 114.935 174.485 114.058C173.77 113.18 172.386 114.391 171.387 114.993C170.388 115.596 168.496 117.473 169.354 118.363Z" fill="white"/>
<path opacity="0.2" d="M152.128 111.376C151.412 110.494 150.028 111.709 149.028 112.314C148.027 112.918 146.138 114.792 146.996 115.681C148.048 116.771 149.743 115.409 150.809 114.404C151.697 113.569 152.845 112.251 152.128 111.376Z" fill="white"/>
<path opacity="0.2" d="M132.351 101.744C133.402 102.834 135.097 101.472 136.163 100.467C137.046 99.6388 138.199 98.3189 137.48 97.4416C136.761 96.5642 135.383 97.7725 134.382 98.3771C133.381 98.9817 131.491 100.857 132.351 101.744Z" fill="white"/>
<path opacity="0.2" d="M127.983 80.3926C129.035 81.4824 130.73 80.1206 131.796 79.1159C132.678 78.2872 133.832 76.9674 133.115 76.0879C132.397 75.2083 131.016 76.4209 130.015 77.0255C129.014 77.6301 127.123 79.5055 127.983 80.3926Z" fill="white"/>
</g>
<path d="M208.397 -11.8794C205.712 -14.4039 202.864 -16.7492 199.871 -18.9C196.865 -15.4339 192.428 -10.3242 187.228 -4.33136C196.926 4.36111 209.783 12.7777 212.705 14.4743C225.17 21.7194 239.063 26.5085 249.746 36.4355C251.649 38.2096 253.755 40.2991 255.798 42.6128C258.909 39.3503 261.398 36.7379 263.006 35.0524C260.114 33.5014 257.202 31.8986 254.346 30.0762C242.329 22.4155 232.693 10.6929 222.253 0.981386L208.397 -11.8794Z" fill="#2D2B2C"/>
<path d="M172.342 12.8369C174.514 18.2662 179.701 22.1284 184.383 26.0899C199.924 39.3043 217.878 52.6563 231.116 68.4579C234.832 64.5733 238.478 60.754 241.941 57.1274C238.265 53.5495 235.357 50.3552 234.378 49.2649C220.571 34.1303 204.526 6.72126 182.561 1.0502C179.289 4.82292 175.846 8.79215 172.342 12.8369Z" fill="#2D2B2C"/>
<path d="M158.324 29.0136C153.685 34.3732 149.251 39.4975 145.342 44.0233C148.161 48.4277 151.415 52.5378 155.056 56.2918C164.148 65.6337 174.576 73.505 185.06 81.1648C191.796 86.0911 199.196 90.0539 206.403 94.2538C210.152 90.3555 214.236 86.0937 218.451 81.6954C203.569 69.7394 190.592 55.1077 176.027 42.7952C173.964 41.0372 166.195 34.3147 158.324 29.0136Z" fill="#2D2B2C"/>
</g>
<g clip-path="url(#clip1_575_69)">
<path d="M109.133 151.357C109.133 151.357 100.455 142.657 98.4864 144.039C96.0309 145.753 103.385 156.315 103.385 156.315L109.133 151.357Z" fill="#7A796E"/>
<path d="M85.3789 176.947C85.3789 176.947 73.9038 172.601 72.6681 174.679C71.134 177.254 82.1937 183.832 82.1937 183.832L85.3789 176.947Z" fill="#7A796E"/>
<path d="M114.053 250.932C114.053 250.932 106.358 260.49 104.243 259.334C101.618 257.889 107.827 246.609 107.827 246.609L114.053 250.932Z" fill="#7A796E"/>
<path d="M87.7387 228.001C87.7387 228.001 76.7882 233.538 75.337 231.601C73.5411 229.204 83.8417 221.491 83.8417 221.491L87.7387 228.001Z" fill="#7A796E"/>
<path d="M110.309 148.467C91.5357 154.639 100.05 171.804 100.05 171.804C100.05 171.804 81.6842 168.098 79.4703 181.94C77.6918 193.067 85.6861 200.676 88.2009 202.049C85.9994 203.466 78.1464 213.432 82.4399 224.266C87.7036 237.545 102.729 231.139 102.729 231.139C102.729 231.139 95.9522 249.072 115.239 253.348C130.719 256.789 131.795 234.119 138.628 232.91C145.461 231.702 235.503 237.114 235.503 237.114L231.584 152.733C231.584 152.733 142.532 167.016 135.612 166.49C128.692 165.963 125.385 143.515 110.309 148.467Z" fill="#FCF0E3"/>
<path d="M110.127 200.607C110.534 213.052 120.392 224.202 126.717 217.439C133.041 210.675 124.414 207.091 124.176 199.811C123.95 192.935 130.698 189.108 126.579 183.341C122.461 177.575 109.665 186.513 110.127 200.607Z" fill="#1A1A1A"/>
<path d="M111.441 238.445C109.479 241.854 110.042 244.858 112.473 246.15C115.459 247.737 118.135 245.157 119.798 241.837C121.46 238.516 121.023 235.306 118.95 234.246C116.877 233.185 113.406 235.022 111.441 238.445Z" fill="#1A1A1A"/>
<path d="M100.245 213.434C98.78 211.618 94.8655 211.89 91.6832 214.201C88.5009 216.512 87.7921 219.486 89.4847 221.655C91.5653 224.324 95.0699 223.066 97.93 220.712C100.79 218.357 101.707 215.25 100.245 213.434Z" fill="#1A1A1A"/>
<path d="M108.766 157.532C106.582 159.204 106.523 162.262 109.02 165.302C111.518 168.342 115.237 169.601 117.109 168.204C118.982 166.807 118.879 163.58 116.703 160.577C114.528 157.575 111.453 155.475 108.766 157.532Z" fill="#1A1A1A"/>
<path d="M87.7164 184.531C86.405 186.951 87.5882 189.767 91.1136 191.522C94.6389 193.276 98.538 192.899 99.6823 190.866C100.827 188.832 99.4122 185.918 96.2047 184.075C92.9972 182.232 89.3335 181.56 87.7164 184.531Z" fill="#1A1A1A"/>
<path d="M143.972 226.59C146.288 226.649 148.607 226.702 150.921 226.798C152.698 226.874 154.735 226.835 156.432 227.325C157.367 227.595 158.425 226.936 158.643 226.208C158.915 225.347 158.243 224.681 157.308 224.412C155.414 223.874 153.128 223.915 151.141 223.824C148.722 223.712 146.295 223.662 143.874 223.6C141.517 223.542 141.63 226.532 143.973 226.599L143.972 226.59Z" fill="#2D2B2C"/>
<path d="M153.755 220.086C155.98 219.766 158.205 219.444 160.442 219.182C162.114 218.983 164.621 218.673 165.906 218.835C168.218 219.131 169.118 216.217 166.782 215.921C164.774 215.663 162.685 215.929 160.684 216.154C158.331 216.414 155.995 216.761 153.657 217.096C152.672 217.236 151.85 217.755 151.879 218.655C151.903 219.39 152.767 220.232 153.755 220.095L153.755 220.086Z" fill="#2D2B2C"/>
<path d="M147.573 210.06C149.031 209.733 150.445 209.276 151.864 208.851C152.615 208.625 153.372 208.402 154.13 208.194C154.426 208.107 154.75 208.027 155.066 207.954C155.194 207.922 155.325 207.894 155.453 207.869C155.994 207.755 155.132 207.879 155.548 207.866C157.893 207.708 157.804 204.718 155.45 204.867C154.06 204.961 152.693 205.438 151.393 205.823C149.775 206.302 148.168 206.829 146.508 207.21C144.226 207.72 145.294 210.57 147.573 210.06Z" fill="#2D2B2C"/>
<path d="M143.612 193.287C148.66 193.293 153.66 192.577 158.698 192.394C161.055 192.316 160.956 189.318 158.6 189.395C153.562 189.578 148.562 190.294 143.514 190.289C141.155 190.285 141.262 193.274 143.612 193.287Z" fill="#2D2B2C"/>
<path d="M164.528 199.185C168.013 198.869 171.567 198.954 174.986 198.191C177.265 197.675 176.197 194.825 173.918 195.338C170.842 196.039 167.583 195.908 164.436 196.195C162.105 196.406 162.188 199.396 164.534 199.193L164.528 199.185Z" fill="#2D2B2C"/>
<path d="M168.633 184.68C170.815 183.843 173.354 183.582 175.724 183.655C178.094 183.727 177.963 180.738 175.626 180.656C172.582 180.56 169.55 181.067 166.704 182.149C166.511 182.226 166.339 182.346 166.2 182.5C166.062 182.655 165.96 182.838 165.904 183.038C165.847 183.238 165.837 183.448 165.874 183.652C165.911 183.856 165.995 184.049 166.118 184.216C166.691 184.965 167.727 185.018 168.633 184.668L168.633 184.68Z" fill="#2D2B2C"/>
<path d="M144.172 180.646C147.271 180.094 149.903 178.189 153.108 178.015C155.456 177.884 155.364 174.894 153.009 175.016C149.383 175.213 146.573 177.166 143.104 177.787C140.798 178.199 141.877 181.048 144.172 180.637L144.172 180.646Z" fill="#2D2B2C"/>
<path d="M172.641 171.541C176.988 170.375 181.56 170.048 185.975 169.108C188.264 168.625 187.19 165.766 184.907 166.258C180.496 167.189 175.921 167.525 171.577 168.688C169.334 169.29 170.389 172.144 172.641 171.541Z" fill="#2D2B2C"/>
<path d="M191.845 184.523C195.329 184.199 198.793 183.716 202.305 183.58C204.658 183.503 204.563 180.504 202.206 180.581C198.701 180.714 195.237 181.197 191.747 181.524C189.416 181.742 189.496 184.732 191.845 184.523Z" fill="#2D2B2C"/>
<path d="M171.97 210.51C175.061 210.604 178.145 210.698 181.238 210.606C183.595 210.529 183.497 207.548 181.14 207.607C178.047 207.709 174.962 207.606 171.872 207.512C169.517 207.442 169.633 210.431 171.97 210.51Z" fill="#2D2B2C"/>
<path d="M167.911 227.946C171.137 228.273 174.243 229.101 177.47 229.434C179.782 229.658 180.679 226.756 178.345 226.52C175.119 226.194 172.013 225.365 168.789 225.032C166.474 224.808 165.58 227.71 167.911 227.946Z" fill="#2D2B2C"/>
<path d="M182.809 221.34C186.545 221.014 190.281 220.693 193.987 220.175C194.971 220.038 195.793 219.516 195.764 218.616C195.74 217.882 194.876 217.042 193.888 217.177C190.183 217.694 186.447 218.021 182.711 218.342C180.377 218.544 180.46 221.537 182.809 221.34Z" fill="#2D2B2C"/>
<path d="M203.945 226.42C208.374 226.101 212.798 226.4 217.067 225.137C219.285 224.485 218.235 221.629 216.002 222.287C212.054 223.452 207.938 223.134 203.847 223.43C201.506 223.6 201.592 226.59 203.945 226.429L203.945 226.42Z" fill="#2D2B2C"/>
<path d="M197.122 211.682C200.974 211.52 204.683 210.63 208.265 209.468C210.448 208.757 209.404 205.9 207.198 206.618C203.918 207.683 200.556 208.544 197.024 208.692C194.672 208.791 194.766 211.768 197.123 211.691L197.122 211.682Z" fill="#2D2B2C"/>
<path d="M185.299 200.645C188.912 199.956 192.559 199.455 196.223 199.143C198.557 198.934 198.474 195.944 196.125 196.144C192.136 196.487 188.167 197.035 184.235 197.786C181.935 198.233 183.012 201.08 185.299 200.636L185.299 200.645Z" fill="#2D2B2C"/>
<path d="M202.312 191.508C205.522 190.487 209.766 190.303 213.031 191.156C215.272 191.746 216.126 188.825 213.91 188.243C210.107 187.245 204.991 187.466 201.248 188.658C199.056 189.357 200.1 192.214 202.312 191.508Z" fill="#2D2B2C"/>
<path d="M212.885 201.59C215.977 201.488 219.177 200.987 222.16 201.832C223.098 202.101 224.153 201.445 224.371 200.712C224.643 199.856 223.973 199.182 223.036 198.915C219.744 197.988 216.196 198.473 212.787 198.6C210.43 198.677 210.528 201.676 212.885 201.599L212.885 201.59Z" fill="#2D2B2C"/>
<path d="M218.206 215.179C220.92 214.862 223.508 214.084 226.203 213.716C227.188 213.582 228.013 213.057 227.983 212.157C227.959 211.419 227.092 210.589 226.105 210.718C223.419 211.079 220.813 211.861 218.108 212.18C217.119 212.294 216.301 212.84 216.331 213.74C216.355 214.492 217.218 215.29 218.206 215.179Z" fill="#2D2B2C"/>
<path d="M224.423 226.346C226.426 226.281 228.546 226.31 230.505 225.895C232.791 225.412 231.72 222.553 229.437 223.045C229.065 223.123 228.057 223.195 227.399 223.232C226.376 223.292 225.352 223.326 224.325 223.36C221.969 223.437 222.067 226.435 224.423 226.358L224.423 226.346Z" fill="#2D2B2C"/>
<path d="M219.432 187.206C221.294 186.22 223.453 185.783 225.51 185.163C227.72 184.49 226.671 181.64 224.445 182.31C222.086 183.024 219.639 183.557 217.503 184.684C215.512 185.737 217.434 188.259 219.432 187.206Z" fill="#2D2B2C"/>
<path d="M207.697 175.196C207.87 175.058 207.353 175.378 207.795 175.162C207.97 175.088 207.955 175.088 207.753 175.164C207.907 175.105 208.067 175.054 208.225 175.007C208.817 174.83 209.419 174.686 210.027 174.576C211.521 174.297 213.028 174.094 214.542 173.969C216.137 173.817 217.747 173.729 219.353 173.706C220.578 173.69 221.2 173.645 222.213 173.912C224.448 174.512 225.299 171.59 223.089 170.996C221.894 170.678 220.502 170.714 219.255 170.722C217.457 170.736 215.663 170.864 213.87 171.04C212.068 171.204 210.276 171.463 208.501 171.816C207.274 172.07 205.958 172.419 205.032 173.164C203.335 174.528 205.994 176.551 207.682 175.178L207.697 175.196Z" fill="#2D2B2C"/>
<path d="M221.527 167.34C222.893 167.093 224.273 166.931 225.659 166.856C228.012 166.758 227.917 163.78 225.561 163.857C223.85 163.956 222.147 164.163 220.462 164.475C220.253 164.507 220.053 164.583 219.876 164.698C219.699 164.813 219.548 164.964 219.433 165.142C219.318 165.319 219.242 165.519 219.21 165.728C219.178 165.937 219.19 166.151 219.246 166.355C219.574 167.193 220.551 167.492 221.526 167.328L221.527 167.34Z" fill="#2D2B2C"/>
<path d="M190.865 174.742C192.114 173.524 194.156 173.022 195.779 172.221C197.808 171.221 195.882 168.699 193.85 169.7C191.927 170.663 189.705 171.264 188.215 172.712C186.725 174.16 189.337 176.233 190.865 174.742Z" fill="#2D2B2C"/>
<path d="M150.955 171.898C153.889 171.772 156.767 171.149 159.712 171.215C162.07 171.264 161.957 168.274 159.614 168.216C156.668 168.151 153.79 168.773 150.857 168.902C148.505 169.004 148.599 171.978 150.956 171.901L150.955 171.898Z" fill="#2D2B2C"/>
<g opacity="0.26">
<path opacity="0.26" d="M114.644 209.036C117.394 214.826 121.737 217.106 123.619 215.09C125.501 213.075 119.45 210.25 118.46 206.47C117.531 202.919 116.982 197.14 115.218 196.808C112.274 196.253 111.676 202.784 114.644 209.036Z" fill="#F08641"/>
<path opacity="0.26" d="M114.172 245.287C115.37 246.247 116.906 244.654 117.84 243.516C118.621 242.569 119.607 241.098 118.777 240.303C117.948 239.508 116.699 240.905 115.785 241.641C114.871 242.376 113.196 244.502 114.172 245.287Z" fill="#F08641"/>
<path opacity="0.26" d="M90.8204 220.881C91.3975 222.303 93.5134 221.658 94.8835 221.12C96.0257 220.672 97.603 219.869 97.2643 218.77C96.9255 217.67 95.1504 218.29 93.9997 218.481C92.8491 218.671 90.3477 219.72 90.8204 220.881Z" fill="#F08641"/>
<path opacity="0.26" d="M88.8828 186.189C88.0039 187.446 89.6928 188.864 90.887 189.726C91.8816 190.444 93.4124 191.333 94.1509 190.453C94.8894 189.574 93.4161 188.427 92.6201 187.55C91.824 186.672 89.5985 185.163 88.8828 186.189Z" fill="#F08641"/>
<path opacity="0.26" d="M109.115 159.394C107.902 160.334 109.087 162.202 109.971 163.38C110.707 164.361 111.901 165.667 112.87 165.047C113.839 164.427 112.772 162.895 112.276 161.818C111.779 160.742 110.106 158.626 109.115 159.394Z" fill="#F08641"/>
</g>
</g>
<g clip-path="url(#clip2_575_69)">
<path d="M12.5279 93.6544C12.5279 93.6544 2.82521 100.141 3.74907 102.245C4.89188 104.853 16.0902 99.9236 16.0902 99.9236L12.5279 93.6544Z" fill="#2D2B2C"/>
<path d="M31.994 120.536C31.994 120.536 25.8296 130.445 27.5392 131.983C29.6553 133.886 37.825 124.775 37.825 124.775L31.994 120.536Z" fill="#2D2B2C"/>
<path d="M106.217 107.393C106.217 107.393 113.714 116.338 112.239 118.098C110.414 120.267 101.043 112.413 101.043 112.413L106.217 107.393Z" fill="#2D2B2C"/>
<path d="M80.0001 127.745C80.0001 127.745 83.1406 138.983 81.0708 139.963C78.4898 141.197 73.2165 130.152 73.2165 130.152L80.0001 127.745Z" fill="#2D2B2C"/>
<path d="M10.0529 92.0177C12.3452 110.672 29.917 105.889 29.917 105.889C29.917 105.889 23.0786 122.348 35.5692 126.961C45.6101 130.668 54.1718 124.608 55.9146 122.515C56.8283 124.83 64.6673 133.993 75.5574 131.98C88.8988 129.515 85.6978 114.312 85.6978 114.312C85.6978 114.312 101.15 123.939 108.697 106.722C114.754 92.9104 93.8299 87.7343 93.9646 81.1331C94.0992 74.5318 115.73 -8.48898 115.73 -8.48898L36.3847 -20.3669C36.3847 -20.3669 33.2861 65.3737 31.5237 71.7345C29.7613 78.0954 8.21519 77.0462 10.0529 92.0177Z" fill="#FDBF12"/>
<path d="M58.5936 101.801C70.2621 103.711 82.4683 96.5658 77.3339 89.4177C72.1996 82.2697 68.9079 78.9437 62.0885 77.8288C55.6385 76.7728 51.6758 80.4889 45.545 83.27C39.4142 86.0512 45.3902 99.6332 58.5936 101.801Z" fill="#2D2B2C"/>
<path d="M94.0995 107.532C96.916 109.994 99.8193 110.02 101.469 107.99C103.499 105.493 101.603 102.515 98.7995 100.359C95.996 98.204 92.9425 98.016 91.57 99.7569C90.1976 101.498 91.2826 105.073 94.0995 107.532Z" fill="#2D2B2C"/>
<path d="M68.7332 113.378C66.7827 114.413 66.302 118.116 67.87 121.511C69.4379 124.907 72.0795 126.114 74.4117 124.934C77.2816 123.482 76.7539 119.982 75.0868 116.875C73.4196 113.768 70.6951 112.348 68.7332 113.378Z" fill="#2D2B2C"/>
<path d="M18.2143 95.136C19.3711 97.4832 22.2083 98.0888 25.4997 96.3317C28.791 94.5747 30.6451 91.3201 29.6958 89.3147C28.7465 87.3094 25.7138 86.8103 22.5141 88.2899C19.3145 89.7695 16.7925 92.246 18.2143 95.136Z" fill="#2D2B2C"/>
<path d="M39.4978 119.754C41.5093 121.426 44.3539 120.834 46.6363 117.872C48.9187 114.911 49.2893 111.197 47.6063 109.754C45.9232 108.311 42.9473 109.093 40.6307 111.748C38.314 114.403 37.0221 117.697 39.4978 119.754Z" fill="#2D2B2C"/>
<path d="M82.4862 41.5573C73.6771 42.8215 74.0966 56.6028 77.239 62.2028C80.1575 67.4254 89.1248 71.35 96.0358 70.3733C97.7626 62.6856 100.421 51.7548 103.238 40.459C100.319 41.9613 97.3291 43.587 94.2007 43.9775C89.993 44.5154 86.3245 41.0058 82.4862 41.5573Z" fill="#2D2B2C"/>
<path d="M33.7732 40.806C42.2067 41.7247 49.2669 40.8949 57.0733 35.7135C65.168 30.3415 72.9127 25.1698 81.7361 21.043C88.2645 17.9985 91.4226 14.8562 92.5761 7.79448C93.4966 2.12613 94.2374 -5.23262 93.153 -11.8593L36.38 -20.3554C36.38 -20.3554 35.133 13.9742 33.7732 40.806Z" fill="#2D2B2C"/>
<g opacity="0.33">
<path opacity="0.33" d="M67.0894 99.4536C72.9906 97.9516 75.9326 94.3062 74.3855 92.1901C72.8383 90.074 69.1034 95.1913 65.3996 95.4167C61.9208 95.6303 56.4348 95.0814 55.7989 96.6649C54.7391 99.3112 60.7171 101.07 67.0894 99.4536Z" fill="#DEB180"/>
<path opacity="0.33" d="M100.78 106.563C101.896 105.627 100.693 103.898 99.8069 102.81C99.0682 101.907 97.8792 100.718 96.986 101.343C96.0929 101.968 97.1639 103.383 97.6783 104.382C98.1927 105.381 99.8709 107.331 100.78 106.563Z" fill="#DEB180"/>
<path opacity="0.33" d="M73.7381 123.865C75.1666 123.59 74.9629 121.495 74.7078 120.117C74.5002 118.969 74.0422 117.35 72.9521 117.466C71.8619 117.582 72.1179 119.334 72.0808 120.461C72.0437 121.588 72.5663 124.094 73.7381 123.865Z" fill="#DEB180"/>
<path opacity="0.33" d="M41.0523 119.287C42.062 120.329 43.7054 119.041 44.7295 118.071C45.5786 117.28 46.6912 116.011 46.0063 115.158C45.3213 114.305 43.984 115.471 43.0185 116.051C42.0531 116.63 40.2259 118.43 41.0523 119.287Z" fill="#DEB180"/>
<path opacity="0.33" d="M19.8103 95.4748C20.4629 96.7701 22.4237 96.017 23.6829 95.4079C24.7353 94.9007 26.1721 94.0257 25.7718 93.0089C25.3715 91.9921 23.7481 92.7061 22.6561 92.9695C21.5642 93.2329 19.283 94.3926 19.8103 95.4748Z" fill="#DEB180"/>
</g>
</g>
<defs>
<clipPath id="clip0_575_69">
<rect width="83.2237" height="148.289" fill="white" transform="translate(163.897 141.374) rotate(-136.998)"/>
</clipPath>
<clipPath id="clip1_575_69">
<rect width="115.665" height="160.867" fill="white" transform="translate(75.3125 260.396) rotate(-91.877)"/>
</clipPath>
<clipPath id="clip2_575_69">
<rect width="109.868" height="153.109" fill="white" transform="translate(108.885 143.892) rotate(-172.328)"/>
</clipPath>
</defs>
</svg>
