<svg width="40" height="40" viewBox="0 0 40 40" fill="none" xmlns="http://www.w3.org/2000/svg">
<circle cx="20" cy="20" r="19.5" fill="white" stroke="#36D6AD"/>
<path d="M20.5 17C19.0411 17 17.6423 16.4205 16.6109 15.3891C15.5794 14.3577 15 12.9588 15 11.5C15 10.0411 15.5794 8.64228 16.6109 7.61085C17.6423 6.57943 19.0411 6 20.5 6C21.9588 6 23.3577 6.57943 24.3891 7.61085C25.4205 8.64228 26 10.0411 26 11.5C25.9982 12.9583 25.4183 14.356 24.3874 15.3874C23.356 16.4183 21.9583 16.9988 20.5 17ZM20.5 7C19.3063 7 18.1617 7.47428 17.3177 8.31828C16.4737 9.16228 16 10.3068 16 11.5C16 12.6931 16.4743 13.8383 17.3177 14.6817C18.1617 15.5257 19.3063 16 20.5 16C21.6937 16 22.8377 15.5257 23.6817 14.6817C24.5257 13.8377 25 12.6931 25 11.5C24.9988 10.3068 24.524 9.16285 23.6805 8.31942C22.8371 7.47599 21.6931 7.00114 20.5 7Z" fill="#36D6AD"/>
<path d="M30.2645 31H10.7354C10.3297 30.9994 10.0006 30.6702 10 30.2645V28.5C10 25.7154 11.1063 23.0446 13.0754 21.0754C15.0446 19.1063 17.7154 18 20.5 18C23.2845 18 25.9554 19.1063 27.9245 21.0754C29.8936 23.0446 30.9999 25.7154 30.9999 28.5V30.2645C30.9994 30.6702 30.6702 30.9994 30.2645 31ZM11 30H29.9999V28.5C29.9999 25.9805 28.9994 23.564 27.2177 21.7828C25.4359 20.0011 23.02 19 20.5005 19C17.9811 19 15.5646 20.0011 13.7828 21.7828C12.0011 23.5646 11.0006 25.9805 11.0006 28.5V30H11Z" fill="#36D6AD"/>
</svg>
